{
  "accessors": [
    {
      "bufferView": 2,
      "componentType": 5126,
      "count": 65532,
      "max": [
        0.60775762796401978,
        0.083820097148418427,
        -0.29236060380935669
      ],
      "min": [
        -0.19203050434589386,
        -4.803617000579834,
        -1.0736420154571533
      ],
      "type": "VEC3"
    },
    {
      "bufferView": 2,
      "byteOffset": 786384,
      "componentType": 5126,
      "count": 65532,
      "max": [
        0.9999845027923584,
        0.99947869777679443,
        0.99999850988388062
      ],
      "min": [
        -0.99999570846557617,
        -0.99998372793197632,
        -0.99999892711639404
      ],
      "type": "VEC3"
    },
    {
      "bufferView": 1,
      "componentType": 5126,
      "count": 65532,
      "max": [
        0.9807249903678894,
        0.98546397686004639
      ],
      "min": [
        0.010199000127613544,
        4.8999998398358002e-05
      ],
      "type": "VEC2"
    },
    {
      "bufferView": 0,
      "componentType": 5125,
      "count": 320175,
      "max": [
        65531
      ],
      "min": [
        0
      ],
      "type": "SCALAR"
    },
    {
      "bufferView": 2,
      "byteOffset": 1572768,
      "componentType": 5126,
      "count": 65532,
      "max": [
        0.6280062198638916,
        0.083721011877059937,
        -0.29210931062698364
      ],
      "min": [
        -0.19064779579639435,
        -4.8021588325500488,
        -1.0736420154571533
      ],
      "type": "VEC3"
    },
    {
      "bufferView": 2,
      "byteOffset": 2359152,
      "componentType": 5126,
      "count": 65532,
      "max": [
        0.99999481439590454,
        0.9990507960319519,
        0.9999966025352478
      ],
      "min": [
        -0.99999892711639404,
        -0.99998372793197632,
        -0.99997991323471069
      ],
      "type": "VEC3"
    },
    {
      "bufferView": 1,
      "byteOffset": 524256,
      "componentType": 5126,
      "count": 65532,
      "max": [
        0.99988901615142822,
        0.98549497127532959
      ],
      "min": [
        0.00010900000052060932,
        0.0010860000038519502
      ],
      "type": "VEC2"
    },
    {
      "bufferView": 0,
      "byteOffset": 1280700,
      "componentType": 5125,
      "count": 322113,
      "max": [
        65531
      ],
      "min": [
        0
      ],
      "type": "SCALAR"
    },
    {
      "bufferView": 2,
      "byteOffset": 3145536,
      "componentType": 5126,
      "count": 36586,
      "max": [
        0.6280062198638916,
        0.083820097148418427,
        -0.29450100660324097
      ],
      "min": [
        -0.19197550415992737,
        -4.8029217720031738,
        -1.0735470056533813
      ],
      "type": "VEC3"
    },
    {
      "bufferView": 2,
      "byteOffset": 3584568,
      "componentType": 5126,
      "count": 36586,
      "max": [
        0.99998617172241211,
        0.99947869777679443,
        0.99998682737350464
      ],
      "min": [
        -0.99999892711639404,
        -0.99998372793197632,
        -0.99992269277572632
      ],
      "type": "VEC3"
    },
    {
      "bufferView": 1,
      "byteOffset": 1048512,
      "componentType": 5126,
      "count": 36586,
      "max": [
        0.99930101633071899,
        0.97927302122116089
      ],
      "min": [
        0.00086700002430006862,
        0.0023320000618696213
      ],
      "type": "VEC2"
    },
    {
      "bufferView": 0,
      "byteOffset": 2569152,
      "componentType": 5125,
      "count": 107712,
      "max": [
        36585
      ],
      "min": [
        0
      ],
      "type": "SCALAR"
    }
  ],
  "asset": {
    "extras": {
      "author": "Moshe Caine (https://sketchfab.com/mosheca)",
      "license": "CC-BY-4.0 (http://creativecommons.org/licenses/by/4.0/)",
      "source": "https://sketchfab.com/3d-models/carrot-985240a0da5848e9aa639d5e4daa38e0",
      "title": "Carrot"
    },
    "generator": "Sketchfab-10.9.0",
    "version": "2.0"
  },
  "bufferViews": [
    {
      "buffer": 0,
      "byteLength": 3000000,
      "byteOffset": 0,
      "name": "floatBufferViews",
      "target": 34963
    },
    {
      "buffer": 0,
      "byteLength": 1341200,
      "byteOffset": 3000000,
      "byteStride": 8,
      "name": "floatBufferViews",
      "target": 34962
    },
    {
      "buffer": 0,
      "byteLength": 4023600,
      "byteOffset": 4341200,
      "byteStride": 12,
      "name": "floatBufferViews",
      "target": 34962
    }
  ],
  "buffers": [
    {
      "byteLength": 8364800,
      "uri": "scene.bin"
    }
  ],
  "extensionsRequired": [
    "KHR_materials_pbrSpecularGlossiness"
  ],
  "extensionsUsed": [
    "KHR_materials_pbrSpecularGlossiness"
  ],
  "images": [
    {
      "uri": "textures/carrot_diffuse.jpeg"
    }
  ],
  "materials": [
    {
      "doubleSided": true,
      "emissiveFactor": [
        0,
        0,
        0
      ],
      "extensions": {
        "KHR_materials_pbrSpecularGlossiness": {
          "diffuseFactor": [
            0.84077394524196047,
            0.84077394524196047,
            0.84077394524196047,
            1
          ],
          "diffuseTexture": {
            "index": 0,
            "texCoord": 0
          },
          "glossinessFactor": 0.98004943180781789,
          "specularFactor": [
            0.062511780335503961,
            0.062511780335503961,
            0.062511780335503961
          ]
        }
      },
      "name": "carrot"
    }
  ],
  "meshes": [
    {
      "primitives": [
        {
          "attributes": {
            "NORMAL": 1,
            "POSITION": 0,
            "TEXCOORD_0": 2
          },
          "indices": 3,
          "material": 0,
          "mode": 4
        }
      ]
    },
    {
      "primitives": [
        {
          "attributes": {
            "NORMAL": 5,
            "POSITION": 4,
            "TEXCOORD_0": 6
          },
          "indices": 7,
          "material": 0,
          "mode": 4
        }
      ]
    },
    {
      "primitives": [
        {
          "attributes": {
            "NORMAL": 9,
            "POSITION": 8,
            "TEXCOORD_0": 10
          },
          "indices": 11,
          "material": 0,
          "mode": 4
        }
      ]
    }
  ],
  "nodes": [
    {
      "children": [
        1
      ],
      "name": "RootNode (gltf orientation matrix)",
      "rotation": [
        -0.70710678118654746,
        -0,
        -0,
        0.70710678118654757
      ]
    },
    {
      "children": [
        2
      ],
      "matrix": [
        4.4408920985006262e-16,
        7.3955709864469857e-32,
        1,
        0,
        -2.832769343193999e-16,
        1,
        7.3955709864469857e-32,
        0,
        -1,
        -2.832769343193999e-16,
        4.4408920985006262e-16,
        0,
        -0.46488648653030396,
        0,
        -0.90086120367050171,
        1
      ],
      "name": "RootNode (model correction matrix)"
    },
    {
      "children": [
        3,
        4,
        5
      ],
      "name": "carrot.obj.cleaner.materialmerger.gles"
    },
    {
      "mesh": 0,
      "name": ""
    },
    {
      "mesh": 1,
      "name": ""
    },
    {
      "mesh": 2,
      "name": ""
    }
  ],
  "samplers": [
    {
      "magFilter": 9729,
      "minFilter": 9987,
      "wrapS": 10497,
      "wrapT": 10497
    }
  ],
  "scene": 0,
  "scenes": [
    {
      "name": "OSG_Scene",
      "nodes": [
        0
      ]
    }
  ],
  "textures": [
    {
      "sampler": 0,
      "source": 0
    }
  ]
}

